<mxfile host="app.diagrams.net" modified="2024-05-12T20:38:48.475Z" agent="Mozilla/5.0 (Windows NT 10.0; Win64; x64; rv:125.0) Gecko/20100101 Firefox/125.0" version="24.4.0" etag="S2Ky_8RtN2ppFS7_oqIK" type="github">
  <diagram name="Page-1" id="pRPLdUH7y0g_k422KSZY">
    <mxGraphModel>
      <root>
        <mxCell id="0" />
        <mxCell id="1" parent="0" />
      </root>
    </mxGraphModel>
  </diagram>
</mxfile>
